<?xml version="1.0" standalone="no"?>
<!DOCTYPE svg PUBLIC "-//W3C//DTD SVG 20010904//EN"
 "http://www.w3.org/TR/2001/REC-SVG-20010904/DTD/svg10.dtd">
<svg version="1.0" xmlns="http://www.w3.org/2000/svg"
 width="512.000000pt" height="512.000000pt" viewBox="0 0 512.000000 512.000000"
 preserveAspectRatio="xMidYMid meet">
<metadata>
Created by potrace 1.11, written by Peter Selinger 2001-2013
</metadata>
<g transform="translate(0.000000,512.000000) scale(0.100000,-0.100000)"
fill="#000000" stroke="none">
<path d="M700 2725 l0 -55 60 0 60 0 0 -140 0 -140 80 0 80 0 0 140 0 140 55
0 55 0 0 55 0 55 -195 0 -195 0 0 -55z"/>
<path d="M1140 2618 c-35 -90 -69 -178 -77 -195 l-13 -33 78 0 79 0 40 116 39
117 41 -114 40 -114 77 -3 c71 -3 77 -1 72 15 -3 10 -37 97 -74 193 l-68 175
-86 3 -85 3 -63 -163z"/>
<path d="M1490 2725 l0 -55 55 0 55 0 0 -140 0 -140 80 0 80 0 0 140 0 140 55
0 55 0 0 55 0 55 -190 0 -190 0 0 -55z"/>
<path d="M1920 2618 c-35 -90 -69 -178 -77 -195 l-13 -33 79 0 79 0 39 117 39
117 41 -115 40 -114 77 -3 c71 -3 77 -1 72 15 -3 10 -37 97 -74 193 l-68 175
-86 3 -85 3 -63 -163z"/>
<path d="M2430 2586 l0 -196 108 0 c122 0 170 16 215 69 54 65 57 170 6 242
-38 54 -91 73 -216 77 l-113 4 0 -196z m272 132 c79 -61 88 -180 19 -249 -44
-44 -91 -59 -188 -59 l-73 0 0 171 0 171 103 -4 c95 -3 107 -5 139 -30z"/>
<path d="M2880 2585 c0 -167 2 -195 15 -195 13 0 15 28 15 195 0 167 -2 195
-15 195 -13 0 -15 -28 -15 -195z"/>
<path d="M3102 2759 c-54 -27 -88 -72 -103 -135 -33 -143 99 -267 249 -233 84
18 92 29 92 114 0 43 -4 75 -10 75 -6 0 -10 -28 -10 -65 0 -58 -2 -66 -26 -82
-14 -9 -49 -18 -77 -20 -126 -10 -222 104 -187 220 32 109 182 159 276 93 21
-15 34 -12 34 6 0 5 -19 18 -42 28 -59 27 -141 26 -196 -1z"/>
<path d="M3457 2773 c-4 -3 -7 -91 -7 -195 0 -160 2 -188 15 -188 13 0 15 28
15 195 0 178 -4 208 -23 188z"/>
<path d="M3540 2765 c0 -12 14 -15 70 -15 l70 0 0 -180 c0 -153 2 -180 15
-180 13 0 15 27 15 180 l0 180 70 0 c56 0 70 3 70 15 0 13 -24 15 -155 15
-131 0 -155 -2 -155 -15z"/>
<path d="M3943 2602 c-101 -218 -99 -212 -81 -212 8 0 25 24 39 53 l24 52 116
3 116 3 23 -56 c12 -30 29 -55 36 -55 8 0 14 3 14 8 0 4 -39 91 -87 195 -58
123 -93 187 -103 187 -10 0 -44 -62 -97 -178z m150 34 c26 -57 47 -106 47
-110 0 -3 -45 -6 -101 -6 -55 0 -99 4 -97 9 17 46 94 211 98 211 3 0 27 -47
53 -104z"/>
<path d="M4290 2585 l0 -195 130 0 c80 0 130 4 130 10 0 6 -45 10 -115 10
l-115 0 0 185 c0 158 -2 185 -15 185 -13 0 -15 -28 -15 -195z"/>
</g>
</svg>
